<?xml version="1.0" encoding="UTF-8" standalone="no"?>
<!-- Created with Inkscape (http://www.inkscape.org/) -->

<svg
   xmlns:dc="http://purl.org/dc/elements/1.1/"
   xmlns:cc="http://creativecommons.org/ns#"
   xmlns:rdf="http://www.w3.org/1999/02/22-rdf-syntax-ns#"
   xmlns:svg="http://www.w3.org/2000/svg"
   xmlns="http://www.w3.org/2000/svg"
   xmlns:sodipodi="http://sodipodi.sourceforge.net/DTD/sodipodi-0.dtd"
   xmlns:inkscape="http://www.inkscape.org/namespaces/inkscape"
   width="202mm"
   height="200mm"
   viewBox="0 0 202 200"
   version="1.1"
   id="svg8"
   inkscape:version="0.92.1 r15371"
   sodipodi:docname="logo.svg">
  <defs
     id="defs2" />
  <sodipodi:namedview
     id="base"
     pagecolor="#ffffff"
     bordercolor="#666666"
     borderopacity="1.0"
     inkscape:pageopacity="0.0"
     inkscape:pageshadow="2"
     inkscape:zoom="0.7"
     inkscape:cx="415.36726"
     inkscape:cy="342.26058"
     inkscape:document-units="mm"
     inkscape:current-layer="g4531"
     showgrid="true"
     showguides="false"
     units="mm"
     fit-margin-top="0"
     fit-margin-left="0"
     fit-margin-right="0"
     fit-margin-bottom="0"
     inkscape:window-width="1323"
     inkscape:window-height="744"
     inkscape:window-x="415"
     inkscape:window-y="230"
     inkscape:window-maximized="0"
     inkscape:snap-bbox="true">
    <inkscape:grid
       type="xygrid"
       id="grid4485"
       units="mm"
       spacingx="0.62500001"
       spacingy="0.62500001"
       originx="-2.3499721e-016"
       originy="6.0159285e-014" />
  </sodipodi:namedview>
  <metadata
     id="metadata5">
    <rdf:RDF>
      <cc:Work
         rdf:about="">
        <dc:format>image/svg+xml</dc:format>
        <dc:type
           rdf:resource="http://purl.org/dc/dcmitype/StillImage" />
        <dc:title></dc:title>
      </cc:Work>
    </rdf:RDF>
  </metadata>
  <g
     inkscape:label="Layer 1"
     inkscape:groupmode="layer"
     id="layer1"
     transform="translate(1.0833282,-97)">
    <path
       style="opacity:1;fill:#000000;fill-opacity:0.50196078;fill-rule:nonzero;stroke:none;stroke-width:10;stroke-linecap:round;stroke-linejoin:round;stroke-miterlimit:4;stroke-dasharray:none;stroke-dashoffset:0;stroke-opacity:0.50196078"
       id="path4493-0"
       sodipodi:type="arc"
       sodipodi:cx="98.916679"
       sodipodi:cy="201.5"
       sodipodi:rx="95.000008"
       sodipodi:ry="95.000008"
       sodipodi:start="4.7079733"
       sodipodi:end="4.7065247"
       sodipodi:open="true"
       d="M 98.497191,106.50092 A 95.000008,95.000008 0 0 1 193.9156,201.04611 95.000008,95.000008 0 0 1 99.404975,296.49875 95.000008,95.000008 0 0 1 3.9181097,202.0227 95.000008,95.000008 0 0 1 98.359576,106.50163" />
    <path
       style="opacity:1;fill:#ffffff;fill-opacity:1;fill-rule:nonzero;stroke:#000000;stroke-width:10;stroke-linecap:round;stroke-linejoin:round;stroke-miterlimit:4;stroke-dasharray:none;stroke-dashoffset:0;stroke-opacity:1"
       id="path4493"
       sodipodi:type="arc"
       sodipodi:cx="98.916672"
       sodipodi:cy="197"
       sodipodi:rx="90"
       sodipodi:ry="90"
       sodipodi:start="4.7079733"
       sodipodi:end="4.7065247"
       sodipodi:open="true"
       d="M 98.519262,107.00088 A 90,90 0 0 1 188.91564,196.57 90,90 0 0 1 99.379268,286.99881 90,90 0 0 1 8.9180341,197.49519 90,90 0 0 1 98.38889,107.00155" />
    <g
       id="g5777"
       transform="translate(-1.0833287)">
      <path
         sodipodi:nodetypes="ccccccccccccc"
         inkscape:connector-curvature="0"
         id="path4512"
         d="M 40.000001,257 C 40.000001,247 50,247 50,247 c 10e-7,-10 10,-10 10,-10 10,0 10,-40 10,-40 0,-30 -10,-40 -10,-40 v -20 h 10 v 10 H 85.000001 V 137 H 100 V 287 C 50,287 40.000001,257 40.000001,257 Z"
         style="fill:#000000;fill-opacity:1;fill-rule:evenodd;stroke:#000000;stroke-width:5;stroke-linecap:round;stroke-linejoin:miter;stroke-miterlimit:4;stroke-dasharray:none;stroke-opacity:1" />
      <path
         sodipodi:nodetypes="ccccccccccccc"
         inkscape:connector-curvature="0"
         id="path4512-2"
         d="m 160,257 c 0,-10 -10,-10 -10,-10 0,-10 -10,-10 -10,-10 -10,0 -10,-40 -10,-40 0,-30 10,-40 10,-40 v -20 h -10 v 10 h -15 v -10 h -15 v 150 c 50,0 60,-30 60,-30 z"
         style="fill:#000000;fill-opacity:1;fill-rule:evenodd;stroke:#000000;stroke-width:5;stroke-linecap:round;stroke-linejoin:miter;stroke-miterlimit:4;stroke-dasharray:none;stroke-opacity:1" />
    </g>
    <g
       id="g9121"
       transform="translate(8.0324213e-7,-2.5034649e-4)"
       style="stroke:#c0c0c0;stroke-opacity:1">
      <path
         inkscape:connector-curvature="0"
         id="path9102"
         d="m 48.916672,165.75 c -6.167798,0.12346 -6.250001,18.75 -6.250001,18.75 0.0822,12.91127 -12.499999,12.5 -12.499999,12.5 12.5,0 12.5,18.75 12.5,18.75 0,12.5 6.25,12.5 6.25,12.5"
         style="fill:none;fill-rule:evenodd;stroke:#c0c0c0;stroke-width:5;stroke-linecap:butt;stroke-linejoin:miter;stroke-miterlimit:4;stroke-dasharray:none;stroke-opacity:1" />
      <path
         inkscape:connector-curvature="0"
         id="path9102-1"
         d="m 148.91667,165.75 c 6.1678,0.12346 6.25,18.75 6.25,18.75 -0.0822,12.91127 12.5,12.5 12.5,12.5 -12.5,0 -12.5,18.75 -12.5,18.75 0,12.5 -6.25,12.5 -6.25,12.5"
         style="fill:none;fill-rule:evenodd;stroke:#c0c0c0;stroke-width:5;stroke-linecap:butt;stroke-linejoin:miter;stroke-miterlimit:4;stroke-dasharray:none;stroke-opacity:1" />
    </g>
    <g
       id="g4531"
       style="stroke:#ffffff;stroke-opacity:1">
      <g
         id="g4558">
        <g
           id="g4550">
          <path
             style="opacity:1;fill:none;fill-opacity:1;fill-rule:nonzero;stroke:#fffdfd;stroke-width:3.5;stroke-linecap:round;stroke-linejoin:round;stroke-miterlimit:4;stroke-dasharray:none;stroke-dashoffset:0;stroke-opacity:1;paint-order:markers fill stroke"
             id="path4494"
             sodipodi:type="arc"
             sodipodi:cx="98.951126"
             sodipodi:cy="196.96455"
             sodipodi:rx="7.8021288"
             sodipodi:ry="7.8021288"
             sodipodi:start="4.7079733"
             sodipodi:end="4.7065247"
             sodipodi:open="true"
             d="m 98.916675,189.1625 a 7.8021288,7.8021288 0 0 1 7.836495,7.76478 7.8021288,7.8021288 0 0 1 -7.761941,7.8393 7.8021288,7.8021288 0 0 1 -7.842114,-7.7591 7.8021288,7.8021288 0 0 1 7.756257,-7.84492" />
          <path
             style="fill:none;fill-rule:evenodd;stroke:#fffdfd;stroke-width:3.5;stroke-linecap:round;stroke-linejoin:round;stroke-miterlimit:4;stroke-dasharray:none;stroke-opacity:1"
             d="m 106.75325,196.8691 c 0,7.89758 7.80213,7.89758 7.87894,0.10256 0.005,-0.48441 -0.0768,-0.10256 -0.0768,-0.10256"
             id="path4498"
             inkscape:connector-curvature="0"
             sodipodi:nodetypes="csc" />
          <path
             d="m 116.45199,214.9266 a 25,25 0 0 1 -31.537022,2.70926 25,25 0 0 1 -8.914232,-30.37203 25,25 0 0 1 27.998774,-14.76458 25,25 0 0 1 20.02755,24.51166"
             sodipodi:open="true"
             sodipodi:end="0.00044610135"
             sodipodi:start="0.79959487"
             sodipodi:ry="25"
             sodipodi:rx="25"
             sodipodi:cy="196.99976"
             sodipodi:cx="99.027061"
             sodipodi:type="arc"
             id="path4491"
             style="stroke:#ffffff;stroke-width:5.60744381;stroke-miterlimit:4;stroke-dasharray:none;stroke-opacity:1;stroke-linecap:round;stroke-linejoin:round;opacity:1;fill:none;fill-opacity:1;fill-rule:nonzero;stroke-dashoffset:0;paint-order:markers fill stroke"
             transform="matrix(0.62417031,0,0,0.62417031,37.210275,74.003002)" />
        </g>
        <path
           style="fill:none;fill-rule:evenodd;stroke:#ffffff;stroke-width:3.5;stroke-linecap:round;stroke-linejoin:round;stroke-opacity:1;stroke-miterlimit:4;stroke-dasharray:none"
           d="M 80.166672,181.375 C 71.079444,197.17483 70.791673,197 70.791673,197 c 9.375,15.625 9.375,15.625 9.375,15.625"
           id="path4510"
           inkscape:connector-curvature="0" />
        <path
           style="fill:none;fill-rule:evenodd;stroke:#ffffff;stroke-width:3.5;stroke-linecap:round;stroke-linejoin:round;stroke-miterlimit:4;stroke-dasharray:none;stroke-opacity:1"
           d="m 117.66667,181.375 c 9.08723,15.79983 9.375,15.625 9.375,15.625 -9.375,15.625 -9.375,15.625 -9.375,15.625"
           id="path4510-9"
           inkscape:connector-curvature="0" />
      </g>
    </g>
  </g>
</svg>
